<svg width="15" height="18" viewBox="0 0 15 18" fill="none" xmlns="http://www.w3.org/2000/svg">
<path d="M7.50105 0C5.48542 0 3.65532 0.371652 2.30088 0.998725C1.62435 1.31154 1.0664 1.69037 0.660483 2.1352C0.254568 2.58004 0.00209221 3.10666 0.00209221 3.67347V7.27806C-0.000697403 7.30102 -0.000697403 7.32398 0.00209221 7.34694V10.9515C-0.000697403 10.9745 -0.000697403 10.9974 0.00209221 11.0204V14.3265C0.00209221 14.8933 0.254568 15.42 0.660483 15.8648C1.0664 16.3096 1.62435 16.6885 2.30088 17.0013C3.65532 17.6283 5.48542 18 7.50105 18C9.51667 18 11.3468 17.6283 12.7012 17.0013C13.3777 16.6885 13.9357 16.3096 14.3416 15.8648C14.7475 15.42 15 14.8933 15 14.3265V3.67347C15 3.10666 14.7475 2.58004 14.3416 2.1352C13.9357 1.69037 13.3777 1.31154 12.7012 0.998725C11.3468 0.371652 9.51667 0 7.50105 0ZM7.50105 0.734694C9.43019 0.734694 11.1696 1.10635 12.3999 1.67602C13.0151 1.96014 13.5005 2.29305 13.8171 2.64031C14.1338 2.98756 14.2858 3.32765 14.2858 3.67347C14.2858 4.01929 14.1338 4.35938 13.8171 4.70663C13.5005 5.05389 13.0151 5.3868 12.3999 5.67092C11.1696 6.24059 9.43019 6.61225 7.50105 6.61225C5.57191 6.61225 3.83247 6.24059 2.60218 5.67092C1.98703 5.3868 1.5016 5.05389 1.18496 4.70663C0.868322 4.35938 0.716278 4.01929 0.716278 3.67347C0.716278 3.32765 0.868322 2.98756 1.18496 2.64031C1.5016 2.29305 1.98703 1.96014 2.60218 1.67602C3.83247 1.10635 5.57191 0.734694 7.50105 0.734694ZM0.716278 5.26913C1.11661 5.68957 1.65225 6.04831 2.30088 6.34821C3.65532 6.97529 5.48542 7.34694 7.50105 7.34694C9.51667 7.34694 11.3468 6.97529 12.7012 6.34821C13.3498 6.04831 13.8855 5.68957 14.2858 5.26913V7.28954C14.2858 7.30102 14.2858 7.3125 14.2858 7.32398V7.34694C14.2858 7.69276 14.1338 8.03284 13.8171 8.3801C13.5005 8.72736 13.0151 9.06027 12.3999 9.34439C11.1696 9.91406 9.43019 10.2857 7.50105 10.2857C5.57191 10.2857 3.83247 9.91406 2.60218 9.34439C1.98703 9.06027 1.5016 8.72736 1.18496 8.3801C0.868322 8.03284 0.716278 7.69276 0.716278 7.34694C0.719068 7.32398 0.719068 7.30102 0.716278 7.27806V5.26913ZM0.716278 8.9426C1.11661 9.36304 1.65225 9.72178 2.30088 10.0217C3.65532 10.6488 5.48542 11.0204 7.50105 11.0204C9.51667 11.0204 11.3468 10.6488 12.7012 10.0217C13.3498 9.72178 13.8855 9.36304 14.2858 8.9426V10.963C14.2858 10.9745 14.2858 10.986 14.2858 10.9974V11.0204C14.2858 11.3662 14.1338 11.7063 13.8171 12.0536C13.5005 12.4008 13.0151 12.7337 12.3999 13.0179C11.1696 13.5875 9.43019 13.9592 7.50105 13.9592C5.57191 13.9592 3.83247 13.5875 2.60218 13.0179C1.98703 12.7337 1.5016 12.4008 1.18496 12.0536C0.868322 11.7063 0.716278 11.3662 0.716278 11.0204C0.719068 10.9974 0.719068 10.9745 0.716278 10.9515V8.9426ZM0.716278 12.6161C1.11661 13.0365 1.65225 13.3952 2.30088 13.6952C3.65532 14.3222 5.48542 14.6939 7.50105 14.6939C9.51667 14.6939 11.3468 14.3222 12.7012 13.6952C13.3498 13.3952 13.8855 13.0365 14.2858 12.6161V14.3265C14.2858 14.6724 14.1338 15.0124 13.8171 15.3597C13.5005 15.707 13.0151 16.0399 12.3999 16.324C11.1696 16.8937 9.43019 17.2653 7.50105 17.2653C5.57191 17.2653 3.83247 16.8937 2.60218 16.324C1.98703 16.0399 1.5016 15.707 1.18496 15.3597C0.868322 15.0124 0.716278 14.6724 0.716278 14.3265V12.6161Z" fill="white"/>
</svg>
