<svg width="25" height="25" viewBox="0 0 25 25" fill="none" xmlns="http://www.w3.org/2000/svg">
<path d="M12.1719 9.98835C9.92188 9.98835 8.58259 12.3991 9.65402 14.2741C10.779 16.2026 13.5112 16.2026 14.6362 14.2741C14.8504 13.8455 15.0112 13.3634 15.0112 12.8276C15.0112 11.2741 13.7254 9.98835 12.1719 9.98835ZM18.8147 7.79192C18.5469 7.04192 17.9576 6.45264 17.2076 6.18478C16.0826 5.70264 13.404 5.80978 12.1719 5.80978C10.8862 5.80978 8.20759 5.70264 7.08259 6.18478C6.33259 6.45264 5.7433 7.04192 5.47545 7.79192C5.04688 8.91692 5.10045 11.5955 5.10045 12.8276C5.10045 14.1134 5.04688 16.7919 5.47545 17.9169C5.7433 18.6669 6.33259 19.2562 7.08259 19.5241C8.20759 20.0062 10.8862 19.8991 12.1719 19.8991C13.404 19.8991 16.0826 20.0062 17.2076 19.5241C17.9576 19.2562 18.5469 18.6669 18.8147 17.9169C19.2969 16.7919 19.1897 14.1134 19.1897 12.8276C19.1897 11.5955 19.2969 8.91692 18.8147 7.79192ZM12.1719 17.2205C8.7433 17.2205 6.65402 13.5776 8.31473 10.6312C10.029 7.73835 14.2612 7.73835 15.9754 10.6312C16.3504 11.3276 16.5647 12.0776 16.5647 12.8276C16.5647 15.2919 14.5826 17.2741 12.1719 17.2205ZM16.7254 9.29192C15.9219 9.29192 15.4397 8.43478 15.8147 7.73835C16.2433 7.09549 17.2076 7.09549 17.5826 7.73835C17.6897 7.89907 17.7433 8.11335 17.7433 8.27407C17.7433 8.86335 17.2612 9.29192 16.7254 9.29192ZM21.6004 0.827637H2.7433C1.29688 0.827637 0.171875 2.00621 0.171875 3.39907V22.2562C0.171875 23.7026 1.29688 24.8276 2.7433 24.8276H21.6004C22.9933 24.8276 24.1719 23.7026 24.1719 22.2562V3.39907C24.1719 2.00621 22.9933 0.827637 21.6004 0.827637ZM20.6362 16.3634C20.5826 17.7562 20.2612 18.9884 19.2969 19.9526C18.279 20.9705 17.0469 21.2919 15.7076 21.3455C14.2612 21.4526 10.029 21.4526 8.63616 21.3455C7.2433 21.2919 6.01116 20.9705 5.04688 19.9526C4.02902 18.9884 3.70759 17.7562 3.65402 16.3634C3.54688 14.9705 3.54688 10.7384 3.65402 9.29192C3.70759 7.95264 4.02902 6.72049 5.04688 5.70264C6.01116 4.73835 7.2433 4.41692 8.63616 4.36335C10.029 4.25621 14.2612 4.25621 15.7076 4.36335C17.0469 4.41692 18.279 4.73835 19.2969 5.75621C20.2612 6.72049 20.5826 7.95264 20.6362 9.34549C20.7433 10.7384 20.7433 14.9705 20.6362 16.3634Z" fill="#3F4871"/>
</svg>
