<svg width="79" height="43" viewBox="0 0 79 43" fill="white" xmlns="http://www.w3.org/2000/svg">
<path d="M0.154297 16.8359V0.399902H5.50985C7.3412 0.399902 8.71856 0.776945 9.64193 1.53103C10.5807 2.26973 11.0501 3.28544 11.0501 4.57815C11.0501 6.47106 10.1421 7.74839 8.32613 8.41014V8.45631C9.31105 8.68715 10.0728 9.14114 10.6115 9.81828C11.1501 10.48 11.4194 11.3111 11.4194 12.3114C11.4194 13.6964 10.9346 14.7968 9.96511 15.6124C8.99557 16.4281 7.65668 16.8359 5.94845 16.8359H0.154297ZM5.34826 9.3566H2.27805V15.0353H5.64835C8.03372 15.0353 9.22641 14.0889 9.22641 12.196C9.22641 10.3031 7.93369 9.3566 5.34826 9.3566ZM5.44059 2.20047H2.27805V7.57911H5.34826C7.74902 7.57911 8.9494 6.67882 8.9494 4.87825C8.9494 3.09307 7.7798 2.20047 5.44059 2.20047Z" fill="#010101"></path>
<path d="M14.5579 6.44798C15.5582 5.33993 16.9202 4.78591 18.6438 4.78591C20.3674 4.78591 21.7294 5.33993 22.7297 6.44798C23.73 7.55602 24.2302 9.06419 24.2302 10.9725C24.2302 12.8808 23.73 14.389 22.7297 15.497C21.7294 16.6051 20.3674 17.1591 18.6438 17.1591C16.9202 17.1591 15.5582 16.6051 14.5579 15.497C13.573 14.389 13.0805 12.8808 13.0805 10.9725C13.0805 9.06419 13.573 7.55602 14.5579 6.44798ZM18.6438 6.44798C17.5819 6.44798 16.7432 6.8558 16.1276 7.67144C15.512 8.4717 15.2042 9.57205 15.2042 10.9725C15.2042 12.3729 15.512 13.481 16.1276 14.2966C16.7432 15.0969 17.5819 15.497 18.6438 15.497C19.7211 15.497 20.5675 15.0969 21.1831 14.2966C21.7987 13.481 22.1064 12.3729 22.1064 10.9725C22.1064 9.57205 21.7987 8.4717 21.1831 7.67144C20.5675 6.8558 19.7211 6.44798 18.6438 6.44798Z" fill="#010101"></path>
<path d="M30.75 10.4185L36.6365 16.8359H33.9587L28.7647 10.9725H28.7186V16.8359H26.6871V5.10909H28.7186V9.97987H28.7647L33.497 5.10909H36.0132L30.75 10.4185Z" fill="#010101"></path>
<path d="M42.3669 4.78591C43.7673 4.78591 44.9215 5.20143 45.8295 6.03246C46.7375 6.86349 47.253 7.94076 47.3761 9.26426H45.2524C45.1754 8.43322 44.8677 7.75609 44.329 7.23284C43.8058 6.7096 43.144 6.44798 42.3438 6.44798C41.3127 6.44798 40.497 6.8558 39.8968 7.67144C39.2967 8.4717 38.9966 9.57205 38.9966 10.9725C38.9966 12.3729 39.289 13.481 39.8738 14.2966C40.4739 15.0969 41.2973 15.497 42.3438 15.497C43.144 15.497 43.8058 15.22 44.329 14.666C44.8677 14.0966 45.1754 13.381 45.2524 12.5191H47.3761C47.253 13.8888 46.7375 15.0045 45.8295 15.8664C44.9215 16.7282 43.7673 17.1591 42.3669 17.1591C40.674 17.1591 39.3274 16.6051 38.3271 15.497C37.3422 14.389 36.8497 12.8808 36.8497 10.9725C36.8497 9.06419 37.3422 7.55602 38.3271 6.44798C39.3274 5.33993 40.674 4.78591 42.3669 4.78591Z" fill="#010101"></path>
<path d="M12.4424 21.522H14.7739L8.218 34.8185C7.61781 36.0189 6.95606 36.873 6.23275 37.3809C5.52483 37.8887 4.68611 38.1426 3.71657 38.1426C3.13176 38.1426 2.63161 38.0811 2.21609 37.958V36.1112C2.50849 36.2036 2.88553 36.2497 3.34722 36.2497C4.00897 36.2497 4.56299 36.0881 5.00928 35.765C5.45558 35.4418 5.85571 34.8955 6.20967 34.126L0 21.522H2.33151L4.80153 26.8083C5.94035 29.2398 6.78677 31.0635 7.3408 32.2792H7.38696C8.12566 30.6787 8.97208 28.8628 9.92623 26.8314L12.4424 21.522Z" fill="#010101"></path>
<path d="M18.4329 31.5405L24.3194 37.958H21.6416L16.4476 32.0946H16.4015V37.958H14.37V26.2312H16.4015V31.1019H16.4476L21.1799 26.2312H23.6961L18.4329 31.5405Z" fill="#010101"></path>
<path d="M31.628 25.9311C33.1208 25.9311 34.3134 26.4851 35.206 27.5931C36.0986 28.7012 36.5449 30.194 36.5449 32.0715C36.5449 33.949 36.0986 35.4495 35.206 36.5729C34.3288 37.681 33.1438 38.235 31.6511 38.235C30.8662 38.235 30.1506 38.0657 29.5042 37.7271C28.8733 37.3732 28.3962 36.8961 28.073 36.2959H28.0268V42.2286H25.9954V26.2312H28.0037V27.9163H28.0499C28.3577 27.3007 28.8348 26.816 29.4811 26.462C30.1275 26.108 30.8431 25.9311 31.628 25.9311ZM31.1201 27.57C30.1506 27.57 29.3734 27.9779 28.7886 28.7935C28.2192 29.5938 27.9345 30.6864 27.9345 32.0715C27.9345 33.4565 28.2192 34.5569 28.7886 35.3725C29.3734 36.1882 30.1506 36.596 31.1201 36.596C32.1204 36.596 32.9207 36.1882 33.5209 35.3725C34.1211 34.5415 34.4212 33.4411 34.4212 32.0715C34.4212 30.7018 34.1211 29.6092 33.5209 28.7935C32.9207 27.9779 32.1204 27.57 31.1201 27.57Z" fill="#010101"></path>
<path d="M43.1742 25.908C44.6362 25.908 45.7673 26.2927 46.5676 27.0622C47.3832 27.8163 47.791 28.9474 47.791 30.4556V34.957C47.791 36.142 47.8834 37.1423 48.068 37.958H46.2213C46.1136 37.4655 46.0597 36.8961 46.0597 36.2497H46.0135C45.1671 37.5578 43.8128 38.2119 41.9507 38.2119C40.7503 38.2119 39.7885 37.8964 39.0652 37.2654C38.3419 36.6191 37.9802 35.788 37.9802 34.7723C37.9802 33.7566 38.3111 32.9564 38.9728 32.3716C39.65 31.7714 40.8042 31.3405 42.4355 31.0789C43.5743 30.8942 44.7054 30.7634 45.8289 30.6864V30.2247C45.8289 29.286 45.5903 28.5935 45.1132 28.1472C44.6516 27.7009 44.0052 27.4777 43.1742 27.4777C42.3431 27.4777 41.6968 27.6932 41.2351 28.1241C40.7734 28.5396 40.5272 29.1013 40.4964 29.8092H38.465C38.5265 28.655 38.9651 27.7162 39.7808 26.9929C40.5964 26.2696 41.7276 25.908 43.1742 25.908ZM45.8289 32.9487V32.2331C44.6439 32.3254 43.6205 32.4485 42.7587 32.6024C41.7737 32.7563 41.0735 32.9872 40.658 33.2949C40.2579 33.6027 40.0578 34.049 40.0578 34.6338C40.0578 35.2494 40.2656 35.7419 40.6811 36.1112C41.112 36.4652 41.7045 36.6422 42.4586 36.6422C43.4897 36.6422 44.2976 36.3344 44.8824 35.7188C45.2364 35.3494 45.4826 34.9724 45.6211 34.5877C45.7596 34.1875 45.8289 33.6412 45.8289 32.9487Z" fill="#010101"></path>
<path d="M52.9908 26.2312V37.958H50.9594V26.2312H52.9908ZM51.1441 21.522V23.8073H49.2512V21.522H51.1441ZM54.676 21.522V23.8073H52.8062V21.522H54.676Z" fill="#010101"></path>
<path d="M66.2907 26.2312V37.958H64.2593V32.8794H58.3267V37.958H56.2952V26.2312H58.3267V31.2635H64.2593V26.2312H66.2907Z" fill="#010101"></path>
<path d="M73.767 25.908C75.229 25.908 76.3602 26.2927 77.1604 27.0622C77.9761 27.8163 78.3839 28.9474 78.3839 30.4556V34.957C78.3839 36.142 78.4762 37.1423 78.6609 37.958H76.8142C76.7064 37.4655 76.6526 36.8961 76.6526 36.2497H76.6064C75.76 37.5578 74.4057 38.2119 72.5436 38.2119C71.3432 38.2119 70.3814 37.8964 69.6581 37.2654C68.9347 36.6191 68.5731 35.788 68.5731 34.7723C68.5731 33.7566 68.904 32.9564 69.5657 32.3716C70.2429 31.7714 71.3971 31.3405 73.0284 31.0789C74.1672 30.8942 75.2983 30.7634 76.4217 30.6864V30.2247C76.4217 29.286 76.1832 28.5935 75.7061 28.1472C75.2444 27.7009 74.5981 27.4777 73.767 27.4777C72.936 27.4777 72.2897 27.6932 71.828 28.1241C71.3663 28.5396 71.12 29.1013 71.0893 29.8092H69.0579C69.1194 28.655 69.558 27.7162 70.3737 26.9929C71.1893 26.2696 72.3204 25.908 73.767 25.908ZM76.4217 32.9487V32.2331C75.2367 32.3254 74.2133 32.4485 73.3515 32.6024C72.3666 32.7563 71.6664 32.9872 71.2509 33.2949C70.8507 33.6027 70.6507 34.049 70.6507 34.6338C70.6507 35.2494 70.8584 35.7419 71.2739 36.1112C71.7049 36.4652 72.2973 36.6422 73.0514 36.6422C74.0825 36.6422 74.8905 36.3344 75.4753 35.7188C75.8292 35.3494 76.0755 34.9724 76.214 34.5877C76.3525 34.1875 76.4217 33.6412 76.4217 32.9487Z" fill="#010101"></path>
</svg>