<svg width="195" height="22" viewBox="0 0 195 22" fill="none" xmlns="http://www.w3.org/2000/svg">
<path d="M12.4705 21.5614H5.84696L0 8.76716H5.69615L8.99289 15.7877L14.8759 0.407028H20.5713L12.4705 21.5614Z" fill="black"/>
<path d="M120.222 21.5614H115.03L115.058 13.3756H105.648L105.621 21.5614H100.461V0.407028H105.621L105.648 8.647H115.058L115.03 0.407028H120.222V21.5614Z" fill="black"/>
<path d="M142.072 0.407028V5.13561H130.021V8.77532H139.399V13.1931H130.021V16.8328H142.072V21.5614H124.861V0.407028H142.072Z" fill="black"/>
<path d="M178.206 8.76716L187.151 21.5614H180.449L174.596 12.82L170.914 16.8758V21.5614H165.754V0.407028H170.914V9.70842L179.096 0.407028H185.578L178.206 8.76716Z" fill="black"/>
<path d="M193.681 19.9078C193.497 20.2705 193.144 20.4515 192.622 20.4515C192.269 20.4515 191.969 20.3283 191.719 20.0821C191.47 19.8403 191.345 19.5458 191.345 19.1964C191.345 18.8478 191.47 18.5526 191.719 18.3108C191.969 18.0645 192.269 17.9414 192.622 17.9414C193.144 17.9414 193.497 18.1202 193.681 18.4777L193.321 18.6312C193.203 18.4176 192.97 18.3108 192.622 18.3108C192.378 18.3108 192.166 18.3968 191.987 18.5689C191.813 18.7462 191.726 18.9546 191.726 19.1964C191.726 19.4382 191.813 19.6474 191.987 19.8247C192.166 19.9916 192.378 20.0754 192.622 20.0754C192.97 20.0754 193.203 19.9686 193.321 19.7542L193.681 19.9078ZM191.176 17.7879C190.785 18.178 190.59 18.6483 190.59 19.1964C190.59 19.7453 190.785 20.2148 191.176 20.605C191.575 20.9914 192.051 21.185 192.601 21.185C193.156 21.185 193.631 20.9914 194.026 20.605C194.421 20.2148 194.619 19.7453 194.619 19.1964C194.619 18.6483 194.421 18.178 194.026 17.7879C193.631 17.397 193.156 17.2019 192.601 17.2019C192.051 17.2019 191.575 17.397 191.176 17.7879M190.914 20.8639C190.445 20.4077 190.21 19.8521 190.21 19.1964C190.21 18.5407 190.445 17.983 190.914 17.5223C191.38 17.0625 191.942 16.8325 192.601 16.8325C193.264 16.8325 193.829 17.0625 194.295 17.5223C194.765 17.983 195 18.5407 195 19.1964C195 19.8521 194.765 20.4077 194.295 20.8639C193.829 21.3289 193.264 21.5611 192.601 21.5611C191.942 21.5611 191.38 21.3289 190.914 20.8639" fill="black"/>
<path d="M32.1745 16.7915V16.7937H25.7326L28.0059 15.1056C26.9383 14.056 26.2758 12.6029 26.2758 11C26.2758 7.80536 28.9048 5.20631 32.1362 5.20631C35.367 5.20631 37.9959 7.80536 37.9959 11C37.9959 14.1813 35.388 16.7708 32.1745 16.7915ZM32.1362 5.22367e-05C25.9907 5.22367e-05 21.0088 4.92445 21.0088 11C21.0088 17.0749 25.9907 21.9993 32.1362 21.9993C38.2811 21.9993 43.2629 17.0749 43.2629 11C43.2629 4.92445 38.2811 5.22367e-05 32.1362 5.22367e-05" fill="black"/>
<path d="M93.8803 15.0944C92.8187 16.144 91.3541 16.7937 89.738 16.7937C86.5066 16.7937 83.8783 14.1947 83.8783 11C83.8783 7.80536 86.5066 5.2063 89.738 5.2063C91.3541 5.2063 92.8187 5.85607 93.8803 6.90488L97.6062 3.22141C95.5925 1.23133 92.8112 4.50956e-05 89.738 4.50956e-05C83.5932 4.50956e-05 78.6113 4.92519 78.6113 11C78.6113 17.0749 83.5932 22 89.738 22C92.8112 22 95.5925 20.7687 97.6062 18.7786L93.8803 15.0944Z" fill="black"/>
<path d="M159.182 15.0945C158.12 16.144 156.656 16.7938 155.04 16.7938C151.809 16.7938 149.18 14.1948 149.18 11.0001C149.18 7.80542 151.809 5.20637 155.04 5.20637C156.656 5.20637 158.12 5.85613 159.182 6.90495L162.908 3.22147C160.894 1.23139 158.113 0.000106131 155.04 0.000106131C148.895 0.000106131 143.913 4.92525 143.913 11.0001C143.913 17.0749 148.895 22.0001 155.04 22.0001C158.113 22.0001 160.894 20.7688 162.908 18.7787L159.182 15.0945Z" fill="black"/>
<path d="M66.7514 3.71545L63.0278 0.0334573L55.7073 7.2706L48.3867 0.0334573L44.6631 3.71545L51.9828 10.9518L44.6631 18.189L48.3867 21.871L55.7073 14.6338L63.0278 21.871L66.7514 18.189L59.4317 10.9518L66.7514 3.71545Z" fill="#002DFF"/>
</svg>
