<svg width="25" height="19" viewBox="0 0 25 19" fill="none" xmlns="http://www.w3.org/2000/svg">
<path d="M24.4042 3.37491C24.1409 2.23698 23.3073 1.33611 22.2981 1.05163C20.4115 0.482666 12.9526 0.482666 12.9526 0.482666C12.9526 0.482666 5.44986 0.482666 3.56321 1.05163C2.55406 1.33611 1.72043 2.23698 1.45717 3.37491C0.930664 5.36629 0.930664 9.63353 0.930664 9.63353C0.930664 9.63353 0.930664 13.8534 1.45717 15.8921C1.72043 17.0301 2.55406 17.8835 3.56321 18.168C5.44986 18.6896 12.9526 18.6896 12.9526 18.6896C12.9526 18.6896 20.4115 18.6896 22.2981 18.168C23.3073 17.8835 24.1409 17.0301 24.4042 15.8921C24.9307 13.8534 24.9307 9.63353 24.9307 9.63353C24.9307 9.63353 24.9307 5.36629 24.4042 3.37491ZM10.4956 13.474V5.79301L16.7259 9.63353L10.4956 13.474Z" fill="#3F4871"/>
</svg>
